<?xml version="1.0" encoding="utf-8"?>
<!-- Generator: Adobe Illustrator 23.0.3, SVG Export Plug-In . SVG Version: 6.00 Build 0)  -->
<svg version="1.1" id="Layer_1" xmlns="http://www.w3.org/2000/svg" xmlns:xlink="http://www.w3.org/1999/xlink" x="0px" y="0px"
	 viewBox="0 0 1024 1024" style="enable-background:new 0 0 1024 1024;" xml:space="preserve">
<style type="text/css">
	.st0{fill:url(#SVGID_1_);}
	.st1{fill:url(#SVGID_2_);}
	.st2{fill:#EADA98;}
	.st3{fill:#FFF8D2;}
	.st4{fill:#303030;}
</style>
<linearGradient id="SVGID_1_" gradientUnits="userSpaceOnUse" x1="-358.5" y1="1084" x2="-358.5" y2="926" gradientTransform="matrix(1 0 0 -1 0 1026)">
	<stop  offset="0" style="stop-color:#E192D0"/>
	<stop  offset="0.7396" style="stop-color:#CA4AAE"/>
	<stop  offset="1" style="stop-color:#7B1164"/>
</linearGradient>
<path class="st0" d="M-488-58h259c8.3,0,15,6.7,15,15V85c0,8.3-6.7,15-15,15h-259c-8.3,0-15-6.7-15-15V-43
	C-503-51.3-496.3-58-488-58z"/>
<g>
	<linearGradient id="SVGID_2_" gradientUnits="userSpaceOnUse" x1="512" y1="1024" x2="512" y2="-9.094947e-13">
		<stop  offset="0" style="stop-color:#7B1164"/>
		<stop  offset="0.2604" style="stop-color:#CA4AAE"/>
		<stop  offset="1" style="stop-color:#E192D0"/>
	</linearGradient>
	<path class="st1" d="M826.7,1024H197.3C88.8,1024,0,935.2,0,826.7V197.3C0,88.8,88.8,0,197.3,0h629.3C935.2,0,1024,88.8,1024,197.3
		v629.3C1024,935.2,935.2,1024,826.7,1024z"/>
	<g>
		<path class="st2" d="M886.3,859H389.7c-40,0-72.7-32.7-72.7-72.7v-15.7c0-40,32.7-72.7,72.7-72.7h557.8c6.4,0,11.6,5.2,11.6,11.6
			v76.8C959,826.3,926.3,859,886.3,859z"/>
		<path class="st3" d="M840,859H270.7c-40,0-72.7-32.7-72.7-72.7V237.7c0-40,32.7-72.7,72.7-72.7h496.7c40,0,72.7,32.7,72.7,72.7
			V859z"/>
	</g>
	<g>
		<path class="st4" d="M522.3,374v42.2c11.2,1.2,21.2,3.9,29.8,8.1c8.7,4.2,15.9,9,21.7,14.4l-14.4,14.9c-5.4-5-11.2-9.1-17.4-12.1
			c-6.2-3-12.8-5-19.8-5.8v63.9c9.4,3.1,18.2,7.1,26.4,11.9c8.2,4.9,14.8,11.1,19.8,18.6c5,7.6,7.6,17.1,7.6,28.6c0,8.9-2,17.2-6,25
			c-4,7.8-10,14.4-18,19.8c-8,5.4-17.9,8.8-29.8,10.4v40.8h-18.9v-39.9c-13.3-0.8-24.8-3.9-34.5-9.2c-9.8-5.3-17.8-11-24-17.1
			l14-15.6c5.9,6,12.5,11,19.8,14.9c7.3,4,15.6,6.3,24.7,7.1v-77.6c-16.3-5.4-29-12.4-37.9-20.9c-8.9-8.5-13.4-19.3-13.4-32.3
			c0-7.6,1.9-14.8,5.7-21.6c3.8-6.9,9.5-12.7,17.1-17.4c7.6-4.8,17.1-7.7,28.5-8.7V374H522.3z M503.4,436.2
			c-7.7,1.3-13.9,4.2-18.8,8.8c-4.9,4.5-7.4,10.7-7.4,18.6c0,6.5,1.8,12.1,5.4,16.7c3.6,4.6,10.5,9,20.8,13.2V436.2z M522.3,523.8
			v69.8c19-3.8,28.4-15.4,28.4-34.6c0-7.8-2.1-14.6-6.2-20.2C540.4,533.2,533,528.2,522.3,523.8z"/>
	</g>
</g>
</svg>
